<svg width="32" height="32" viewBox="0 0 32 32" fill="none" xmlns="http://www.w3.org/2000/svg">
<circle cx="16" cy="16" r="16" fill="#E6F1FB"/>
<path fill-rule="evenodd" clip-rule="evenodd" d="M5.5 8.5C5.5 7.70435 5.81607 6.94129 6.37868 6.37868C6.94129 5.81607 7.70435 5.5 8.5 5.5H9.872C10.732 5.5 11.482 6.086 11.691 6.92L12.796 11.343C12.8855 11.701 12.8675 12.0775 12.744 12.4252C12.6206 12.773 12.3972 13.0766 12.102 13.298L10.809 14.268C10.674 14.369 10.645 14.517 10.683 14.62C11.2474 16.1549 12.1386 17.5487 13.2949 18.7051C14.4513 19.8614 15.8451 20.7526 17.38 21.317C17.483 21.355 17.63 21.326 17.732 21.191L18.702 19.898C18.9234 19.6028 19.227 19.3794 19.5748 19.256C19.9225 19.1325 20.299 19.1145 20.657 19.204L25.08 20.309C25.914 20.518 26.5 21.268 26.5 22.129V23.5C26.5 24.2956 26.1839 25.0587 25.6213 25.6213C25.0587 26.1839 24.2956 26.5 23.5 26.5H21.25C12.552 26.5 5.5 19.448 5.5 10.75V8.5Z" fill="#09579F"/>
</svg>
