<svg width="24" height="24" viewBox="0 0 24 24" fill="none" xmlns="http://www.w3.org/2000/svg">
<path d="M1.5 13.5C2.32843 13.5 3 12.8284 3 12C3 11.1716 2.32843 10.5 1.5 10.5C0.671573 10.5 0 11.1716 0 12C0 12.8284 0.671573 13.5 1.5 13.5Z" fill="#09579F"/>
<path d="M4.29791 7.50125C4.71212 6.78382 4.46631 5.86643 3.74887 5.45222C3.03143 5.038 2.11404 5.28382 1.69983 6.00125C1.28562 6.71869 1.53143 7.63608 2.24887 8.05029C2.96631 8.46451 3.88369 8.21869 4.29791 7.50125Z" fill="#09579F"/>
<path d="M7.49887 4.30145C8.21631 3.88723 8.46212 2.96985 8.04791 2.25241C7.63369 1.53497 6.71631 1.28916 5.99887 1.70337C5.28143 2.11758 5.03562 3.03497 5.44983 3.75241C5.86404 4.46985 6.78143 4.71566 7.49887 4.30145Z" fill="#09579F"/>
<path d="M8.04754 21.7473C8.46175 21.0299 8.21594 20.1125 7.4985 19.6983C6.78106 19.2841 5.86368 19.5299 5.44946 20.2473C5.03525 20.9648 5.28106 21.8822 5.9985 22.2964C6.71594 22.7106 7.63333 22.4648 8.04754 21.7473Z" fill="#09579F"/>
<path d="M3.75253 18.5473C4.46997 18.1331 4.71578 17.2157 4.30157 16.4983C3.88735 15.7808 2.96997 15.535 2.25253 15.9492C1.53509 16.3634 1.28928 17.2808 1.70349 17.9983C2.1177 18.7157 3.03509 18.9615 3.75253 18.5473Z" fill="#09579F"/>
<path d="M12 0V3C14.3869 3 16.6761 3.94821 18.364 5.63604C20.0518 7.32387 21 9.61305 21 12C21 14.3869 20.0518 16.6761 18.364 18.364C16.6761 20.0518 14.3869 21 12 21V24C15.1826 24 18.2348 22.7357 20.4853 20.4853C22.7357 18.2348 24 15.1826 24 12C24 8.8174 22.7357 5.76516 20.4853 3.51472C18.2348 1.26428 15.1826 0 12 0Z" fill="#09579F"/>
<path d="M12.75 11.25V6.75H9.75V12.75C9.75 13.1478 9.90804 13.5294 10.1893 13.8107C10.4706 14.092 10.8522 14.25 11.25 14.25H16.5V11.25H12.75Z" fill="#09579F"/>
</svg>
