<?xml version="1.0" encoding="UTF-8"?>
<svg id="Layer_1" data-name="Layer 1" xmlns="http://www.w3.org/2000/svg" viewBox="0 0 242.5 64">
  <defs>
    <style>
      .cls-1 {
        fill: #09579f;
        stroke-width: 0px;
      }
    </style>
  </defs>
  <path class="cls-1" d="m28.97,40.61h-15.71l-2.52,7.44H0L15.23,5.94h11.88l15.23,42.11h-10.86l-2.52-7.44Zm-2.64-7.92l-5.22-15.42-5.16,15.42h10.38Z"/>
  <path class="cls-1" d="m77.35,18.02c2.34,2.54,3.51,6.03,3.51,10.47v19.55h-10.2v-18.17c0-2.24-.58-3.98-1.74-5.22-1.16-1.24-2.72-1.86-4.68-1.86s-3.52.62-4.68,1.86c-1.16,1.24-1.74,2.98-1.74,5.22v18.17h-10.26V14.58h10.26v4.44c1.04-1.48,2.44-2.65,4.2-3.51,1.76-.86,3.74-1.29,5.94-1.29,3.92,0,7.05,1.27,9.39,3.81Z"/>
  <path class="cls-1" d="m89.34,9.51c-1.14-1.06-1.71-2.37-1.71-3.93s.57-2.93,1.71-3.99c1.14-1.06,2.61-1.59,4.41-1.59s3.21.53,4.35,1.59c1.14,1.06,1.71,2.39,1.71,3.99s-.57,2.87-1.71,3.93c-1.14,1.06-2.59,1.59-4.35,1.59s-3.27-.53-4.41-1.59Zm9.51,5.07v33.47h-10.26V14.58h10.26Z"/>
  <path class="cls-1" d="m143.35,5.94v42.11h-10.26v-17.33h-15.96v17.33h-10.26V5.94h10.26v16.49h15.96V5.94h10.26Z"/>
  <path class="cls-1" d="m182.7,33.77h-23.21c.16,2.08.83,3.67,2.01,4.77,1.18,1.1,2.63,1.65,4.35,1.65,2.56,0,4.34-1.08,5.34-3.24h10.92c-.56,2.2-1.57,4.18-3.03,5.94-1.46,1.76-3.29,3.14-5.49,4.14-2.2,1-4.66,1.5-7.38,1.5-3.28,0-6.2-.7-8.76-2.1-2.56-1.4-4.56-3.4-6-6-1.44-2.6-2.16-5.64-2.16-9.12s.71-6.52,2.13-9.12c1.42-2.6,3.41-4.6,5.97-6,2.56-1.4,5.5-2.1,8.82-2.1s6.12.68,8.64,2.04c2.52,1.36,4.49,3.3,5.91,5.82,1.42,2.52,2.13,5.46,2.13,8.82,0,.96-.06,1.96-.18,3Zm-10.32-5.7c0-1.76-.6-3.16-1.8-4.2-1.2-1.04-2.7-1.56-4.5-1.56s-3.17.5-4.35,1.5c-1.18,1-1.91,2.42-2.19,4.26h12.84Z"/>
  <path class="cls-1" d="m199.14,3.66v44.39h-10.26V3.66h10.26Z"/>
  <path class="cls-1" d="m221.57,15.54c1.76-.96,3.82-1.44,6.18-1.44,2.76,0,5.26.7,7.5,2.1,2.24,1.4,4.01,3.4,5.31,6,1.3,2.6,1.95,5.62,1.95,9.06s-.65,6.47-1.95,9.09c-1.3,2.62-3.07,4.64-5.31,6.06-2.24,1.42-4.74,2.13-7.5,2.13-2.32,0-4.37-.48-6.15-1.44-1.78-.96-3.17-2.2-4.17-3.72v20.63h-10.26V14.58h10.26v4.74c1-1.56,2.38-2.82,4.14-3.78Zm8.37,9.69c-1.42-1.46-3.17-2.19-5.25-2.19s-3.77.74-5.19,2.22c-1.42,1.48-2.13,3.5-2.13,6.06s.71,4.58,2.13,6.06c1.42,1.48,3.15,2.22,5.19,2.22s3.78-.75,5.22-2.25c1.44-1.5,2.16-3.53,2.16-6.09s-.71-4.57-2.13-6.03Z"/>
</svg>