<?xml version="1.0" encoding="UTF-8"?>
<svg id="Layer_1" data-name="Layer 1" xmlns="http://www.w3.org/2000/svg" viewBox="0 0 64 48">
  <defs>
    <style>
      .cls-1 {
        fill: #09579f;
        stroke-width: 0px;
      }
    </style>
  </defs>
  <path class="cls-1" d="m58.67,10.67h0c-2.95,0-5.33,2.39-5.33,5.33h0v5.33c0,2.95-2.39,5.33-5.33,5.33v-5.33C48,9.55,38.45,0,26.67,0S5.33,9.55,5.33,21.33v5.33H0v10.67h5.33v10.67h10.67v-10.67h21.33v10.67h10.67v-10.67c8.82,0,16-7.18,16-16v-5.33h0c0-2.95-2.39-5.33-5.33-5.33ZM16,26.67v-5.33c0-5.89,4.78-10.67,10.67-10.67s10.67,4.78,10.67,10.67v5.33h-21.33Z"/>
</svg>