<svg width="134" height="137" viewBox="0 0 134 137" fill="none" xmlns="http://www.w3.org/2000/svg">
<path fill-rule="evenodd" clip-rule="evenodd" d="M12.5288 68.2622C12.5288 37.6293 36.8347 12.7988 66.8204 12.7988C96.806 12.7988 121.112 37.6293 121.112 68.2622C121.112 98.895 96.806 123.726 66.8204 123.726C36.8347 123.726 12.5288 98.895 12.5288 68.2622ZM86.9222 57.9431C87.2563 57.4883 87.498 56.9699 87.6332 56.4183C87.7684 55.8667 87.7942 55.2931 87.7093 54.7311C87.6244 54.1692 87.4303 53.6302 87.1385 53.146C86.8468 52.6617 86.4632 52.2419 86.0104 51.9113C85.5576 51.5806 85.0446 51.3458 84.5017 51.2206C83.9587 51.0954 83.3968 51.0823 82.8488 51.1821C82.3008 51.2819 81.7779 51.4926 81.3108 51.8018C80.8437 52.1111 80.4418 52.5126 80.1288 52.9827L62.1096 78.7518L53.0665 69.5136C52.2748 68.76 51.2277 68.3498 50.1458 68.3693C49.0639 68.3888 48.0316 68.8365 47.2664 69.6182C46.5012 70.3999 46.0629 71.4544 46.0438 72.5597C46.0247 73.665 46.4264 74.7347 47.1641 75.5435L59.6929 88.3427C60.1216 88.7804 60.6384 89.1174 61.2074 89.3305C61.7764 89.5436 62.384 89.6277 62.988 89.5768C63.592 89.5259 64.178 89.3413 64.7051 89.0359C65.2323 88.7305 65.6881 88.3115 66.0408 87.808L86.9222 57.9431Z" fill="#2D7A50"/>
</svg>
